<svg width="40" height="41" viewBox="0 0 40 41" fill="none" xmlns="http://www.w3.org/2000/svg">
<path d="M0.710942 39.7047L3.29392 30.2685L3.349 30.0673L3.24473 29.8866C1.55379 26.9563 0.665041 23.6343 0.666666 20.2267C0.67154 9.57602 9.33944 0.908289 19.9881 0.908203L0.710942 39.7047ZM0.710942 39.7047L10.3814 37.1678L10.5735 37.1174L10.7478 37.2126C13.569 38.7522 16.7549 39.5632 19.9885 39.5648C30.6371 39.5647 39.305 30.897 39.3099 20.2447L0.710942 39.7047ZM28.7997 24.8254L28.7991 24.8251C28.5542 24.7022 27.8241 24.3417 27.0984 23.9913C26.3567 23.6332 25.6647 23.3079 25.4678 23.2365L25.4673 23.2363C25.3557 23.1957 25.2743 23.1687 25.2061 23.1528C25.1395 23.1373 25.1063 23.1377 25.0919 23.1393C25.0838 23.1402 25.0767 23.1414 25.061 23.1525C25.0404 23.1669 24.9982 23.2039 24.9391 23.2925C24.5873 23.8201 23.614 24.9622 23.3315 25.2855C23.1392 25.5055 22.8909 25.6908 22.5559 25.7314C22.2412 25.7695 21.9382 25.6676 21.6574 25.5267C21.5877 25.4918 21.4875 25.4485 21.3605 25.3937C20.6765 25.0982 19.2154 24.4672 17.5654 22.9945C16.0346 21.6285 15.008 19.9527 14.7109 19.4409C14.5072 19.0908 14.4611 18.7439 14.5823 18.4176C14.6817 18.1501 14.8797 17.9527 14.9926 17.8401C14.9973 17.8353 15.002 17.8307 15.0064 17.8263L15.0077 17.825C15.1391 17.6945 15.2799 17.5226 15.4378 17.3298C15.5271 17.2207 15.6219 17.105 15.7235 16.9863L15.7275 16.9816L15.7276 16.9816C15.8949 16.791 15.9574 16.6643 16.0792 16.4176C16.1024 16.3707 16.1277 16.3195 16.1562 16.2626C16.1943 16.1864 16.1997 16.1279 16.194 16.0746C16.1875 16.013 16.1635 15.9393 16.115 15.843C16.0399 15.694 15.7503 14.9952 15.4434 14.2495C15.3223 13.9552 15.1962 13.6478 15.0751 13.3529C14.881 12.8799 14.7 12.4387 14.5734 12.1338C14.3938 11.7043 14.2566 11.6266 14.2263 11.6123C14.2077 11.6035 14.1841 11.5968 14.1368 11.5941C14.1107 11.5926 14.0825 11.5925 14.0413 11.5928L14.0314 11.5928C13.9978 11.593 13.9512 11.5933 13.9042 11.5913L12.9661 11.5749C12.7496 11.5758 12.3595 11.6592 12.0193 12.0319C11.9888 12.0653 11.9551 12.1013 11.9189 12.1401C11.4175 12.6765 10.4166 13.7472 10.4166 15.8265C10.4166 16.9332 10.8225 18.0496 11.2808 18.9524C11.7286 19.8346 12.2056 20.4723 12.3331 20.6429L12.3378 20.6492C12.3571 20.6748 12.3905 20.7225 12.4376 20.7896C13.064 21.6834 16.1127 26.0333 20.5965 27.9691C21.7563 28.4697 22.6619 28.7689 23.3731 28.995C24.4601 29.34 25.4559 29.2941 26.268 29.1736L28.7997 24.8254ZM28.7997 24.8254C28.9154 24.8832 29.0123 24.9299 29.0969 24.9706C29.2153 25.0276 29.3096 25.073 29.3979 25.1214C29.4718 25.1619 29.5112 25.1895 29.5308 25.2047M28.7997 24.8254L29.5308 25.2047M29.5308 25.2047C29.5338 25.2225 29.5376 25.2497 29.5406 25.2886C29.5491 25.3951 29.5491 25.5463 29.5328 25.735C29.5004 26.1114 29.4061 26.6067 29.2141 27.1449C29.0653 27.5612 28.5876 28.0386 27.9453 28.4503C27.315 28.8544 26.6501 29.1166 26.2682 29.1736L29.5308 25.2047ZM33.6562 6.57492C30.0067 2.92211 25.1572 0.909869 19.9883 0.908203L33.6562 6.57492ZM33.6562 6.57492C37.3041 10.2278 39.3115 15.0805 39.3099 20.2446L33.6562 6.57492ZM19.9814 37.2165H19.9816L3.51333 20.2282L3.01333 20.2279C3.01333 20.2279 3.01333 20.228 3.01333 20.228C3.01165 23.9739 4.09241 26.8013 5.88331 29.697L4.27608 35.5661L4.04732 36.4014L4.88512 36.1818L10.9205 34.5996C13.705 36.2272 16.4193 37.2148 19.9814 37.2165ZM29.5444 25.2136C29.5443 25.2133 29.5441 25.213 29.5439 25.2127L29.5444 25.2136Z" fill="#202020" stroke="#202020"/>
</svg>
