<svg width="66" height="69" viewBox="0 0 66 69" fill="none" xmlns="http://www.w3.org/2000/svg">
<path d="M23.5876 13.5864C23.9035 12.7012 25.1553 12.7012 25.4712 13.5864L29.1236 23.819C30.1319 26.644 32.3551 28.8671 35.18 29.8754L45.4127 33.5278C46.2978 33.8437 46.2978 35.0955 45.4127 35.4114L35.18 39.0638C32.3551 40.0721 30.1319 42.2952 29.1236 45.1202L25.4712 55.3528C25.1553 56.238 23.9035 56.238 23.5876 55.3528L19.9353 45.1202C18.9269 42.2952 16.7038 40.0721 13.8788 39.0638L3.64617 35.4114C2.76105 35.0955 2.76106 33.8437 3.64617 33.5278L13.8788 29.8754C16.7038 28.8671 18.9269 26.644 19.9353 23.819L23.5876 13.5864Z" fill="#E4002B"/>
<path d="M48.5285 4.91644C48.8445 4.03132 50.0962 4.03132 50.4121 4.91644L51.9602 9.2536C52.9685 12.0786 55.1917 14.3017 58.0167 15.31L62.3538 16.8581C63.2389 17.174 63.2389 18.4258 62.3538 18.7417L58.0167 20.2898C55.1917 21.2981 52.9685 23.5213 51.9602 26.3462L50.4121 30.6834C50.0962 31.5685 48.8445 31.5685 48.5285 30.6834L46.9805 26.3462C45.9721 23.5213 43.749 21.2981 40.924 20.2898L36.5869 18.7417C35.7017 18.4258 35.7017 17.174 36.5868 16.8581L40.924 15.31C43.749 14.3017 45.9721 12.0786 46.9805 9.25361L48.5285 4.91644Z" fill="#E4002B"/>
<path d="M44.4566 41.8188C44.7726 40.9337 46.0243 40.9337 46.3402 41.8188L47.4036 44.798C48.4119 47.623 50.6351 49.8461 53.4601 50.8544L56.4393 51.9178C57.3244 52.2337 57.3244 53.4855 56.4393 53.8014L53.4601 54.8648C50.6351 55.8731 48.4119 58.0963 47.4036 60.9212L46.3402 63.9005C46.0243 64.7856 44.7726 64.7856 44.4566 63.9005L43.3933 60.9212C42.3849 58.0963 40.1618 55.8731 37.3368 54.8648L34.3576 53.8014C33.4725 53.4855 33.4725 52.2337 34.3576 51.9178L37.3368 50.8544C40.1618 49.8461 42.3849 47.623 43.3933 44.798L44.4566 41.8188Z" fill="#E4002B"/>
</svg>
