<svg width="71" height="71" viewBox="0 0 71 71" fill="none" xmlns="http://www.w3.org/2000/svg">
<g clip-path="url(#clip0_1530_661)">
<path d="M70.5 35.4082C70.5 16.0782 54.83 0.408203 35.5 0.408203C16.17 0.408203 0.5 16.0782 0.5 35.4082C0.5 54.7382 16.17 70.4082 35.5 70.4082C54.83 70.4082 70.5 54.7382 70.5 35.4082Z" fill="#F5F5F5"/>
<path d="M20.875 20.7832C20.5766 20.7832 20.2905 20.9017 20.0795 21.1127C19.8685 21.3237 19.75 21.6098 19.75 21.9082C19.75 22.2066 19.8685 22.4927 20.0795 22.7037C20.2905 22.9147 20.5766 23.0332 20.875 23.0332H22.954C23.209 23.0332 23.431 23.2042 23.497 23.4502L27.334 37.8382C26.1289 38.1522 25.0619 38.8571 24.3002 39.8424C23.5386 40.8277 23.1253 42.0378 23.125 43.2832C23.125 43.9042 23.629 44.4082 24.25 44.4082H47.875C48.1734 44.4082 48.4595 44.2897 48.6705 44.0787C48.8815 43.8677 49 43.5816 49 43.2832C49 42.9848 48.8815 42.6987 48.6705 42.4877C48.4595 42.2767 48.1734 42.1582 47.875 42.1582H25.567C25.7997 41.5 26.2308 40.9302 26.8008 40.5272C27.3709 40.1243 28.0519 39.908 28.75 39.9082H45.577C45.7878 39.9082 45.9943 39.849 46.173 39.7374C46.3518 39.6257 46.4956 39.4661 46.588 39.2767C48.3005 35.7624 49.7836 32.1408 51.028 28.4347C51.0772 28.2881 51.0956 28.1329 51.0821 27.9789C51.0686 27.8248 51.0235 27.6752 50.9496 27.5394C50.8757 27.4036 50.7746 27.2844 50.6526 27.1894C50.5306 27.0944 50.3903 27.0256 50.2405 26.9872C42.3292 24.9699 34.1831 24.023 26.02 24.1717L25.672 22.8712C25.5123 22.2723 25.1593 21.7429 24.6678 21.3653C24.1763 20.9878 23.5738 20.7831 22.954 20.7832H20.875ZM23.125 47.7832C23.125 47.1865 23.3621 46.6142 23.784 46.1922C24.206 45.7703 24.7783 45.5332 25.375 45.5332C25.9717 45.5332 26.544 45.7703 26.966 46.1922C27.3879 46.6142 27.625 47.1865 27.625 47.7832C27.625 48.3799 27.3879 48.9522 26.966 49.3742C26.544 49.7961 25.9717 50.0332 25.375 50.0332C24.7783 50.0332 24.206 49.7961 23.784 49.3742C23.3621 48.9522 23.125 48.3799 23.125 47.7832ZM42.25 47.7832C42.25 47.1865 42.4871 46.6142 42.909 46.1922C43.331 45.7703 43.9033 45.5332 44.5 45.5332C45.0967 45.5332 45.669 45.7703 46.091 46.1922C46.5129 46.6142 46.75 47.1865 46.75 47.7832C46.75 48.3799 46.5129 48.9522 46.091 49.3742C45.669 49.7961 45.0967 50.0332 44.5 50.0332C43.9033 50.0332 43.331 49.7961 42.909 49.3742C42.4871 48.9522 42.25 48.3799 42.25 47.7832Z" fill="#202020"/>
</g>
<defs>
<clipPath id="clip0_1530_661">
<rect width="71" height="70" fill="white" transform="translate(0 0.408203)"/>
</clipPath>
</defs>
</svg>
