<svg width="70" height="71" viewBox="0 0 70 71" fill="none" xmlns="http://www.w3.org/2000/svg">
<g clip-path="url(#clip0_1530_798)">
<path d="M70 35.4082C70 16.0782 54.33 0.408203 35 0.408203C15.67 0.408203 0 16.0782 0 35.4082C0 54.7382 15.67 70.4082 35 70.4082C54.33 70.4082 70 54.7382 70 35.4082Z" fill="white"/>
<path fill-rule="evenodd" clip-rule="evenodd" d="M28.2499 26.4082V27.5332H25.2694C23.8294 27.5332 22.6234 28.6192 22.4719 30.0517L20.5774 48.0517C20.5362 48.4437 20.5778 48.84 20.6997 49.2149C20.8215 49.5898 21.0207 49.9349 21.2845 50.2278C21.5483 50.5207 21.8707 50.7549 22.2308 50.9152C22.5909 51.0755 22.9807 51.1583 23.3749 51.1582H46.6249C47.0191 51.1583 47.4088 51.0755 47.769 50.9152C48.1291 50.7549 48.4515 50.5207 48.7153 50.2278C48.979 49.9349 49.1783 49.5898 49.3001 49.2149C49.4219 48.84 49.4636 48.4437 49.4224 48.0517L47.5279 30.0517C47.4552 29.3604 47.1291 28.7205 46.6126 28.2555C46.096 27.7904 45.4255 27.5331 44.7304 27.5332H41.7499V26.4082C41.7499 24.618 41.0387 22.9011 39.7729 21.6352C38.507 20.3694 36.7901 19.6582 34.9999 19.6582C33.2097 19.6582 31.4928 20.3694 30.2269 21.6352C28.961 22.9011 28.2499 24.618 28.2499 26.4082ZM34.9999 21.9082C33.8064 21.9082 32.6618 22.3823 31.8179 23.2262C30.974 24.0701 30.4999 25.2147 30.4999 26.4082V27.5332H39.4999V26.4082C39.4999 25.2147 39.0258 24.0701 38.1819 23.2262C37.3379 22.3823 36.1934 21.9082 34.9999 21.9082ZM30.4999 34.2832C30.4999 35.4767 30.974 36.6213 31.8179 37.4652C32.6618 38.3091 33.8064 38.7832 34.9999 38.7832C36.1934 38.7832 37.3379 38.3091 38.1819 37.4652C39.0258 36.6213 39.4999 35.4767 39.4999 34.2832V33.1582C39.4999 32.8598 39.6184 32.5737 39.8294 32.3627C40.0404 32.1517 40.3265 32.0332 40.6249 32.0332C40.9233 32.0332 41.2094 32.1517 41.4204 32.3627C41.6314 32.5737 41.7499 32.8598 41.7499 33.1582V34.2832C41.7499 36.0734 41.0387 37.7903 39.7729 39.0562C38.507 40.322 36.7901 41.0332 34.9999 41.0332C33.2097 41.0332 31.4928 40.322 30.2269 39.0562C28.961 37.7903 28.2499 36.0734 28.2499 34.2832V33.1582C28.2499 32.8598 28.3684 32.5737 28.5794 32.3627C28.7904 32.1517 29.0765 32.0332 29.3749 32.0332C29.6733 32.0332 29.9594 32.1517 30.1704 32.3627C30.3814 32.5737 30.4999 32.8598 30.4999 33.1582V34.2832Z" fill="#202020"/>
</g>
<defs>
<clipPath id="clip0_1530_798">
<rect width="70" height="70" fill="white" transform="translate(0 0.408203)"/>
</clipPath>
</defs>
</svg>
