<svg width="70" height="71" viewBox="0 0 70 71" fill="none" xmlns="http://www.w3.org/2000/svg">
<g clip-path="url(#clip0_1530_795)">
<path d="M70 35.4082C70 16.0782 54.33 0.408203 35 0.408203C15.67 0.408203 0 16.0782 0 35.4082C0 54.7382 15.67 70.4082 35 70.4082C54.33 70.4082 70 54.7382 70 35.4082Z" fill="#F5F5F5"/>
<path fill-rule="evenodd" clip-rule="evenodd" d="M19.25 26.9707C19.25 25.4167 20.51 24.1582 22.0625 24.1582H47.9375C49.49 24.1582 50.75 25.4182 50.75 26.9707V31.5097C50.7501 31.7073 50.6982 31.9014 50.5995 32.0726C50.5007 32.2438 50.3586 32.3859 50.1875 32.4847C49.6737 32.7805 49.247 33.2065 48.9503 33.7197C48.6536 34.233 48.4973 34.8154 48.4973 35.4082C48.4973 36.001 48.6536 36.5834 48.9503 37.0967C49.247 37.6099 49.6737 38.0359 50.1875 38.3317C50.3586 38.4305 50.5007 38.5726 50.5995 38.7438C50.6982 38.915 50.7501 39.1091 50.75 39.3067V43.8457C50.75 45.3982 49.49 46.6582 47.9375 46.6582H22.0625C21.3166 46.6582 20.6012 46.3619 20.0738 45.8344C19.5463 45.307 19.25 44.5916 19.25 43.8457V39.3067C19.2497 39.1092 19.3014 38.9152 19.3999 38.744C19.4984 38.5729 19.6402 38.4307 19.811 38.3317C20.3248 38.0359 20.7515 37.6099 21.0482 37.0967C21.3449 36.5834 21.5012 36.001 21.5012 35.4082C21.5012 34.8154 21.3449 34.233 21.0482 33.7197C20.7515 33.2065 20.3248 32.7805 19.811 32.4847C19.6402 32.3857 19.4984 32.2435 19.3999 32.0724C19.3014 31.9012 19.2497 31.7072 19.25 31.5097V26.9707ZM41.75 25.2832C42.0484 25.2832 42.3345 25.4017 42.5455 25.6127C42.7565 25.8237 42.875 26.1098 42.875 26.4082V27.5332C42.875 27.8316 42.7565 28.1177 42.5455 28.3287C42.3345 28.5397 42.0484 28.6582 41.75 28.6582C41.4516 28.6582 41.1655 28.5397 40.9545 28.3287C40.7435 28.1177 40.625 27.8316 40.625 27.5332V26.4082C40.625 26.1098 40.7435 25.8237 40.9545 25.6127C41.1655 25.4017 41.4516 25.2832 41.75 25.2832ZM42.875 32.0332C42.875 31.7348 42.7565 31.4487 42.5455 31.2377C42.3345 31.0267 42.0484 30.9082 41.75 30.9082C41.4516 30.9082 41.1655 31.0267 40.9545 31.2377C40.7435 31.4487 40.625 31.7348 40.625 32.0332V33.1582C40.625 33.4566 40.7435 33.7427 40.9545 33.9537C41.1655 34.1647 41.4516 34.2832 41.75 34.2832C42.0484 34.2832 42.3345 34.1647 42.5455 33.9537C42.7565 33.7427 42.875 33.4566 42.875 33.1582V32.0332ZM41.75 36.5332C42.0484 36.5332 42.3345 36.6517 42.5455 36.8627C42.7565 37.0737 42.875 37.3598 42.875 37.6582V38.7832C42.875 39.0816 42.7565 39.3677 42.5455 39.5787C42.3345 39.7897 42.0484 39.9082 41.75 39.9082C41.4516 39.9082 41.1655 39.7897 40.9545 39.5787C40.7435 39.3677 40.625 39.0816 40.625 38.7832V37.6582C40.625 37.3598 40.7435 37.0737 40.9545 36.8627C41.1655 36.6517 41.4516 36.5332 41.75 36.5332ZM42.875 43.2832C42.875 42.9848 42.7565 42.6987 42.5455 42.4877C42.3345 42.2767 42.0484 42.1582 41.75 42.1582C41.4516 42.1582 41.1655 42.2767 40.9545 42.4877C40.7435 42.6987 40.625 42.9848 40.625 43.2832V44.4082C40.625 44.7066 40.7435 44.9927 40.9545 45.2037C41.1655 45.4147 41.4516 45.5332 41.75 45.5332C42.0484 45.5332 42.3345 45.4147 42.5455 45.2037C42.7565 44.9927 42.875 44.7066 42.875 44.4082V43.2832ZM26 35.4082C26 35.1098 26.1185 34.8237 26.3295 34.6127C26.5405 34.4017 26.8266 34.2832 27.125 34.2832H35C35.2984 34.2832 35.5845 34.4017 35.7955 34.6127C36.0065 34.8237 36.125 35.1098 36.125 35.4082C36.125 35.7066 36.0065 35.9927 35.7955 36.2037C35.5845 36.4147 35.2984 36.5332 35 36.5332H27.125C26.8266 36.5332 26.5405 36.4147 26.3295 36.2037C26.1185 35.9927 26 35.7066 26 35.4082ZM27.125 38.7832C26.8266 38.7832 26.5405 38.9017 26.3295 39.1127C26.1185 39.3237 26 39.6098 26 39.9082C26 40.2066 26.1185 40.4927 26.3295 40.7037C26.5405 40.9147 26.8266 41.0332 27.125 41.0332H31.625C31.9234 41.0332 32.2095 40.9147 32.4205 40.7037C32.6315 40.4927 32.75 40.2066 32.75 39.9082C32.75 39.6098 32.6315 39.3237 32.4205 39.1127C32.2095 38.9017 31.9234 38.7832 31.625 38.7832H27.125Z" fill="#202020"/>
</g>
<defs>
<clipPath id="clip0_1530_795">
<rect width="70" height="70" fill="white" transform="translate(0 0.408203)"/>
</clipPath>
</defs>
</svg>
